<svg xmlns="http://www.w3.org/2000/svg" enable-background="new 0 0 512 512" viewBox="0 0 512 512" id="student">
  <path fill="#c3e3f7" d="M391 371c11.05 0 20 8.95 20 20s-8.95 20-20 20-20-8.95-20-20S379.95 371 391 371zM291 347v114H31v-41.52c0-19.87 13.04-37.39 32.07-43.1L181 341l4.5 4.5c22.37 22.37 58.63 22.37 81 0l4.5-4.5L291 347zM257.84 290.21c-9.9 3.74-20.63 5.79-31.84 5.79s-21.94-2.05-31.84-5.79c-29.47-11.16-51.56-37.35-56.91-69.21H136c-16.57 0-30-13.43-30-30s13.43-30 30-30v-20h180v20c16.57 0 30 13.43 30 30s-13.43 30-30 30h-1.25C309.4 252.86 287.31 279.05 257.84 290.21z"></path>
  <polygon fill="#c3e3f7" points="316 62.25 226 96 136 62.25 106 51 226 11 346 51"></polygon>
  <path fill="#0096ff" d="M226,106c-1.189,0-2.379-0.212-3.511-0.637l-120-45
						c-3.966-1.487-6.565-5.313-6.487-9.548c0.078-4.236,2.817-7.962,6.836-9.302l120-40c2.053-0.685,4.271-0.685,6.324,0l120,40
						c4.02,1.339,6.758,5.066,6.836,9.302c0.079,4.235-2.52,8.061-6.487,9.548l-120,45C228.379,105.788,227.189,106,226,106z
						 M135.959,51.555L226,85.32l90.041-33.765L226,21.541L135.959,51.555z"></path>
  <path fill="#0096ff" d="M316 151H136c-5.523 0-10-4.477-10-10V61c0-5.523 4.477-10 10-10s10 4.477 10 10v70h160V65.364c-.641-1.319-1-2.799-1-4.364 0-5.523 4.478-10 10-10h1c5.522 0 10 4.477 10 10v80C326 146.523 321.522 151 316 151zM31 471c-5.523 0-10-4.478-10-10v-41.52c0-24.475 15.751-45.645 39.196-52.679l112.537-33.762 11.693-45.13c1.039-4.416 5.002-7.705 9.734-7.705 5.523 0 10 4.473 10 9.995 0 .847-.107 1.699-.32 2.518l-13.16 50.79c-.877 3.385-3.458 6.065-6.807 7.07l-117.93 35.38C51.257 390.364 41 404.15 41 419.481V461C41 466.523 36.523 471 31 471zM291.004 357.003c-.951 0-1.919-.137-2.877-.425l-20-6c-3.35-1.005-5.931-3.685-6.808-7.07l-13.16-50.79c-.212-.818-.32-1.661-.32-2.508 0-5.522 4.477-10.005 10-10.005 4.762 0 8.746 3.324 9.754 7.78l11.674 45.055 14.605 4.382c5.29 1.587 8.292 7.162 6.705 12.451C299.278 354.205 295.306 357.003 291.004 357.003z"></path>
  <path fill="#0096ff" d="M226 372.244c-17.228 0-34.456-6.558-47.571-19.673l-4.5-4.5c-3.905-3.905-3.905-10.237 0-14.143 3.905-3.904 10.237-3.904 14.143 0l4.5 4.5c18.433 18.434 48.425 18.434 66.857 0l4.5-4.5c3.906-3.904 10.236-3.904 14.143 0 3.905 3.905 3.905 10.237 0 14.143l-4.5 4.5C260.456 365.687 243.228 372.244 226 372.244zM226 306c-12.17 0-24.071-2.165-35.374-6.435-30.672-11.615-53.706-37.708-61.619-69.176C110.274 227.071 96 210.671 96 191c0-18.604 12.767-34.283 30-38.734V141c0-5.523 4.477-10 10-10s10 4.477 10 10v20c0 5.523-4.477 10-10 10-11.028 0-20 8.972-20 20s8.972 20 20 20h1.25c4.884 0 9.053 3.528 9.862 8.344 4.685 27.901 24.07 51.472 50.59 61.515C206.73 284.27 216.253 286 226 286s19.27-1.73 28.306-5.145c26.513-10.04 45.897-33.611 50.582-61.511.81-4.816 4.979-8.344 9.862-8.344H316c11.028 0 20-8.972 20-20s-8.972-20-20-20c-5.522 0-10-4.477-10-10v-20c0-5.523 4.478-10 10-10s10 4.477 10 10v11.266c17.233 4.451 30 20.13 30 38.734 0 19.67-14.273 36.071-33.007 39.388-7.912 31.468-30.945 57.56-61.611 69.173C250.071 303.835 238.17 306 226 306zM501 511H11c-5.523 0-10-4.478-10-10v-40c0-5.522 4.477-10 10-10h280c5.522 0 10 4.478 10 10s-4.478 10-10 10H21v20h470v-20c-5.522 0-10-4.478-10-10s4.478-10 10-10h10c5.522 0 10 4.478 10 10v40C511 506.523 506.522 511 501 511z"></path>
  <path fill="#0096ff" d="M491,471H291c-5.522,0-10-4.478-10-10V321c0-5.522,4.478-10,10-10h200
						c5.522,0,10,4.478,10,10v140C501,466.523,496.522,471,491,471z M301,451h180V331H301V451z"></path>
  <path fill="#0096ff" d="M391,421c-16.542,0-30-13.458-30-30s13.458-30,30-30s30,13.458,30,30
						S407.542,421,391,421z M391,381c-5.514,0-10,4.486-10,10s4.486,10,10,10s10-4.486,10-10S396.514,381,391,381z"></path>
</svg>
